<?xml version="1.0" standalone="no"?>
<!DOCTYPE svg PUBLIC "-//W3C//DTD SVG 20010904//EN"
 "http://www.w3.org/TR/2001/REC-SVG-20010904/DTD/svg10.dtd">
<svg version="1.0" xmlns="http://www.w3.org/2000/svg"
 width="512.000000pt" height="512.000000pt" viewBox="0 0 512.000000 512.000000"
 preserveAspectRatio="xMidYMid meet">
<metadata>
Created by potrace 1.14, written by Peter Selinger 2001-2017
</metadata>
<g transform="translate(0.000000,512.000000) scale(0.100000,-0.100000)"
fill="#000000" stroke="none">
<path d="M2545 4805 c-94 -26 -113 -35 -195 -92 -90 -63 -210 -225 -254 -341
-38 -102 -48 -157 -48 -269 0 -57 -3 -103 -6 -104 -7 -1 -22 -3 -81 -14 -125
-23 -244 -154 -266 -292 l-7 -42 -416 0 c-229 0 -435 -3 -457 -6 -253 -39
-466 -233 -531 -483 -14 -53 -17 -109 -17 -267 0 -252 11 -291 114 -400 l38
-40 3 -878 3 -877 -25 0 c-271 -3 -297 -8 -347 -62 -84 -90 -57 -245 53 -303
39 -20 46 -20 2454 -20 l2415 0 40 21 c90 47 129 165 83 254 -25 49 -86 97
-133 104 -16 2 -84 5 -150 5 l-120 1 3 877 3 878 38 40 c102 107 115 155 115
410 0 161 -4 212 -18 260 -56 192 -177 337 -351 423 -53 26 -98 40 -185 58
-14 2 -215 5 -446 5 l-422 0 -6 43 c-10 64 -58 156 -107 203 -50 48 -133 88
-199 96 -25 3 -46 6 -47 6 -1 1 -1 45 0 99 2 201 -72 384 -217 540 -93 101
-249 184 -311 167z"/>
</g>
</svg>
